<?xml version="1.0" encoding="utf-8"?><svg viewBox="0 0 180 38" xmlns="http://www.w3.org/2000/svg" xmlns:xlink="http://www.w3.org/1999/xlink"><style>:root>svg{display:none}:root>svg:target{display:block}</style><svg viewBox="0 0 6 11" id="arrow-right" xmlns="http://www.w3.org/2000/svg"><g clip-path="url(#aa)"><path d="M.175 9.955a.617.617 0 0 0 .885.858l4.763-4.905-.442-.428.444.43a.617.617 0 0 0-.013-.874c-.007-.008-.015-.014-.022-.02L1.06.187a.617.617 0 0 0-.885.859L4.52 5.48.175 9.955Z"/></g><defs><clipPath id="aa"><path d="M0 0h6v11H0z"/></clipPath></defs></svg><svg viewBox="0 0 180 38" id="logo" xmlns="http://www.w3.org/2000/svg"><path fill-rule="evenodd" clip-rule="evenodd" d="M0 0h39.447v38H0V0Zm4.93 32.759V5.24h29.586v27.52h-11.71v-6.552h-6.164v6.552H4.93Zm102.888-3.65c-2.004-.047-3.611-.75-4.82-2.111-1.209-1.361-1.894-3.181-2.053-5.462-.088-1.126-.004-2.449.252-3.97a14.582 14.582 0 0 1 1.364-4.222c.653-1.286 1.47-2.355 2.45-3.21 1.642-1.435 3.531-2.13 5.667-2.083 1.316.029 2.463.352 3.443.972.989.61 1.779 1.492 2.37 2.646.592 1.154.936 2.468 1.033 3.941.071 1.042.009 2.229-.185 3.562a15.071 15.071 0 0 1-1.046 3.8 11.618 11.618 0 0 1-1.96 3.181 9.161 9.161 0 0 1-2.847 2.196c-1.086.535-2.309.788-3.668.76Zm5.164-13.541c-.088-2.346-.944-3.566-2.569-3.66-1.253-.065-2.291.465-3.112 1.59-.821 1.118-1.364 2.77-1.628 4.956-.168 1.35-.23 2.397-.186 3.139.088 2.383.954 3.608 2.596 3.673 1.077.057 2.004-.352 2.781-1.224.776-.882 1.337-2.159 1.681-3.829.345-1.68.49-3.228.437-4.645Zm-47.513 13.26h4.528l3.35-20.495h-15.77l-3.338 20.495h4.53l2.727-16.68h6.687l-2.714 16.68ZM96.167 8.333h-4.648l-8.647 12.654 2.079-12.654h-4.542l-3.35 20.495h4.661l8.647-12.64-2.08 12.64h4.543l3.337-20.495Zm36.939 20.495h4.503l3.35-20.495h-4.516l-1.324 8.136h-6.621l1.338-8.136h-4.542l-3.338 20.495h4.529l1.404-8.559h6.608l-1.391 8.559Zm24.309-8.685h-7.085l-.807 4.884h8.382l-.622 3.8h-12.911l3.337-20.494h12.937l-.622 3.815h-8.396l-.715 4.32h7.098l-.596 3.675Zm10.14 8.685 1.138-6.954 3.179.014c1.474 0 2.802-.267 3.985-.802 1.192-.535 2.15-1.31 2.874-2.323.724-1.013 1.139-2.21 1.245-3.59.149-2.017-.393-3.659-1.629-4.926-1.227-1.267-2.913-1.9-5.059-1.9l-6.925-.014-3.337 20.495h4.529Zm4.489-10.74-2.728-.029.966-5.911 3.165.014c.557.037 1.002.225 1.338.563.344.328.551.779.622 1.351.124 1.117-.119 2.06-.728 2.83-.609.76-1.488 1.153-2.635 1.182Z"/></svg><svg viewBox="0 0 21 21" id="modal-close" xmlns="http://www.w3.org/2000/svg"><path fill-rule="evenodd" clip-rule="evenodd" d="m10.411 13.105 6.736 6.737a1.906 1.906 0 1 0 2.695-2.695l-6.738-6.736 6.736-6.735A1.907 1.907 0 0 0 17.145.982l-6.734 6.736L3.676.982A1.905 1.905 0 1 0 .981 3.675l6.738 6.736-6.737 6.736a1.906 1.906 0 1 0 2.695 2.695l6.734-6.738v.001Z"/></svg><svg viewBox="0 0 16 16" id="phone" xmlns="http://www.w3.org/2000/svg"><g clip-path="url(#da)"><path d="M12.2 10c-1.1-.1-1.7 1.4-2.5 1.8C8.4 12.5 6 10 6 10S3.5 7.6 4.1 6.3c.5-.8 2-1.4 1.9-2.5-.1-1-2.3-4.6-3.4-3.6C.2 2.4 0 3.3 0 5.1c-.1 3.1 3.9 7 3.9 7 .4.4 3.9 4 7 3.9 1.8 0 2.7-.2 4.9-2.6 1-1.1-2.5-3.3-3.6-3.4Z"/></g><defs><clipPath id="da"><path d="M0 0h16v16H0z"/></clipPath></defs></svg><svg viewBox="0 0 24 24" id="slider-arrow-next" xmlns="http://www.w3.org/2000/svg"><path fill-rule="evenodd" clip-rule="evenodd" d="M14.793 6.793a1 1 0 0 1 1.414 0l4.5 4.5a1 1 0 0 1 0 1.414l-4.5 4.5a1 1 0 0 1-1.414-1.414L17.586 13H4a1 1 0 1 1 0-2h13.586l-2.793-2.793a1 1 0 0 1 0-1.414Z"/></svg><svg viewBox="0 0 24 24" id="slider-arrow-prev" xmlns="http://www.w3.org/2000/svg"><path fill-rule="evenodd" clip-rule="evenodd" d="M9.207 17.207a1 1 0 0 1-1.414 0l-4.5-4.5a1 1 0 0 1 0-1.414l4.5-4.5a1 1 0 0 1 1.414 1.414L6.414 11H20a1 1 0 1 1 0 2H6.414l2.793 2.793a1 1 0 0 1 0 1.414Z"/></svg></svg>