<svg width="512" height="512" viewBox="0 0 512 512" fill="none" xmlns="http://www.w3.org/2000/svg">
<g clip-path="url(#clip0_2105_5)">
<path d="M511.983 217.944C511.983 206.353 502.583 196.953 490.991 196.953H447.868C444.126 184.786 439.217 173.155 433.352 162.095L463.9 131.547C467.842 127.605 470.051 122.264 470.051 116.697C470.051 111.13 467.834 105.789 463.9 101.847L410.103 48.0737C401.903 39.8745 388.612 39.8745 380.411 48.0737L349.863 78.6222C338.806 72.7637 327.172 67.8645 315.014 64.1223V21.0078C315.014 9.40759 305.614 0.00854492 294.014 0.00854492H217.967C206.375 0.00854492 196.975 9.40866 196.975 21.0078V64.1234C184.809 67.8645 173.168 72.7733 162.109 78.6308L131.569 48.0898C123.378 39.8906 110.079 39.8906 101.878 48.0812L48.0985 101.863C39.9068 110.055 39.9068 123.371 48.0985 131.562L78.6395 162.103C72.7734 173.154 67.8646 184.793 64.1234 196.952H20.9917C9.40012 196.953 0 206.353 0 217.952V294.016C0 305.607 9.40012 315.007 20.9906 315.007H64.1138C67.8474 327.174 72.7551 338.815 78.6212 349.863L48.0813 380.405C39.8821 388.605 39.8821 401.905 48.0813 410.103L101.863 463.885C110.063 472.086 123.363 472.086 131.563 463.885L162.088 433.36C173.154 439.236 184.803 444.145 196.977 447.885V490.992C196.977 502.592 206.378 511.99 217.969 511.99H294.016C305.616 511.99 315.016 502.592 315.016 490.992V447.885C327.191 444.144 338.84 439.236 349.906 433.36L380.439 463.894C382.389 465.844 384.704 467.39 387.252 468.445C389.8 469.5 392.53 470.043 395.288 470.042C398.045 470.043 400.776 469.5 403.324 468.445C405.871 467.39 408.186 465.844 410.137 463.894L463.91 410.12C472.102 401.92 472.102 388.62 463.91 380.431L433.362 349.881C439.236 338.824 444.144 327.174 447.878 315.009H491.001C493.758 315.009 496.489 314.466 499.037 313.411C501.585 312.355 503.9 310.808 505.849 308.858C509.785 304.918 511.997 299.578 512 294.009L511.983 217.944ZM255.991 389.23C182.535 389.23 122.771 329.464 122.771 256C122.771 182.544 182.535 122.78 255.991 122.78C329.456 122.78 389.221 182.544 389.221 256C389.221 329.464 329.456 389.23 255.991 389.23Z" fill="#607CE6"/>
<path d="M255.991 156.912C201.353 156.912 156.904 201.36 156.904 255.999C156.904 310.64 201.353 355.097 255.991 355.097C310.632 355.097 355.089 310.64 355.089 255.999C355.089 201.36 310.632 156.912 255.991 156.912Z" fill="#607CE6"/>
</g>
<defs>
<clipPath id="clip0_2105_5">
<rect width="512" height="512" fill="white"/>
</clipPath>
</defs>
</svg>
